<mxfile><diagram id="RO7dBRCJuNTbhJYCr1wM" name="Page-1"><mxGraphModel dx="724" dy="462" grid="1" gridSize="10" guides="1" tooltips="1" connect="1" arrows="1" fold="1" page="1" pageScale="1" pageWidth="827" pageHeight="1169" math="0" shadow="0"><root><mxCell id="0"/><mxCell id="1" parent="0"/><mxCell id="2" value="DUEÑO DE MASCOTA" style="shape=umlActor;verticalLabelPosition=bottom;verticalAlign=top;html=1;outlineConnect=0;" vertex="1" parent="1"><mxGeometry x="290" y="190" width="50" height="100" as="geometry"/></mxCell><mxCell id="3" value="TINDER PET LOVER " style="swimlane;" vertex="1" parent="1"><mxGeometry x="400" y="80" width="200" height="400" as="geometry"/></mxCell><mxCell id="4" value="REGISTRAR&amp;nbsp;" style="ellipse;whiteSpace=wrap;html=1;" vertex="1" parent="3"><mxGeometry x="40" y="120" width="120" height="70" as="geometry"/></mxCell><mxCell id="5" value="LISTAR" style="ellipse;whiteSpace=wrap;html=1;" vertex="1" parent="3"><mxGeometry x="40" y="200" width="120" height="70" as="geometry"/></mxCell><mxCell id="6" value="&amp;nbsp;ESTABLECER MATCH" style="ellipse;whiteSpace=wrap;html=1;" vertex="1" parent="3"><mxGeometry x="40" y="290" width="120" height="70" as="geometry"/></mxCell><mxCell id="7" value="ACCERDER AL SISTEMA" style="ellipse;whiteSpace=wrap;html=1;" vertex="1" parent="3"><mxGeometry x="40" y="40" width="120" height="70" as="geometry"/></mxCell><mxCell id="8" value="" style="endArrow=classic;html=1;entryX=-0.018;entryY=0.607;entryDx=0;entryDy=0;entryPerimeter=0;" edge="1" parent="1" target="7"><mxGeometry width="50" height="50" relative="1" as="geometry"><mxPoint x="350" y="210" as="sourcePoint"/><mxPoint x="400" y="160" as="targetPoint"/></mxGeometry></mxCell><mxCell id="9" value="" style="endArrow=classic;html=1;entryX=0;entryY=0.5;entryDx=0;entryDy=0;" edge="1" parent="1" target="4"><mxGeometry width="50" height="50" relative="1" as="geometry"><mxPoint x="350" y="240" as="sourcePoint"/><mxPoint x="390" y="230" as="targetPoint"/></mxGeometry></mxCell><mxCell id="10" value="" style="endArrow=classic;html=1;entryX=0;entryY=0.5;entryDx=0;entryDy=0;" edge="1" parent="1" target="5"><mxGeometry width="50" height="50" relative="1" as="geometry"><mxPoint x="350" y="260" as="sourcePoint"/><mxPoint x="430" y="280" as="targetPoint"/></mxGeometry></mxCell><mxCell id="11" value="" style="endArrow=classic;html=1;entryX=0;entryY=0.5;entryDx=0;entryDy=0;" edge="1" parent="1" target="6"><mxGeometry width="50" height="50" relative="1" as="geometry"><mxPoint x="350" y="280" as="sourcePoint"/><mxPoint x="440" y="280" as="targetPoint"/></mxGeometry></mxCell><mxCell id="12" value="&lt;p style=&quot;margin: 0px ; margin-top: 4px ; text-align: center&quot;&gt;&lt;br&gt;&lt;b&gt;Mascota&lt;/b&gt;&lt;/p&gt;&lt;br&gt;&lt;hr size=&quot;1&quot;&gt;&lt;p style=&quot;margin: 0px ; margin-left: 4px&quot;&gt;- nombres: String&lt;/p&gt;&lt;p style=&quot;margin: 0px ; margin-left: 4px&quot;&gt;&lt;br&gt;&lt;/p&gt;- genero: char&lt;p style=&quot;margin: 0px ; margin-left: 4px&quot;&gt;&amp;nbsp;&lt;/p&gt;&lt;p style=&quot;margin: 0px ; margin-left: 4px&quot;&gt;- raza: String&lt;/p&gt;&lt;p style=&quot;margin: 0px ; margin-left: 4px&quot;&gt;&lt;br style=&quot;padding: 0px ; margin: 0px&quot;&gt;- edad: int&lt;br style=&quot;padding: 0px ; margin: 0px&quot;&gt;&lt;br style=&quot;padding: 0px ; margin: 0px&quot;&gt;- estadoMatch: boolean&amp;nbsp;&lt;br style=&quot;padding: 0px ; margin: 0px&quot;&gt;&lt;br style=&quot;padding: 0px ; margin: 0px&quot;&gt;- propietario: String&amp;nbsp;&lt;br style=&quot;padding: 0px ; margin: 0px&quot;&gt;&lt;br style=&quot;padding: 0px ; margin: 0px&quot;&gt;- observacion: String&amp;nbsp;&amp;nbsp;&lt;/p&gt;&lt;div style=&quot;padding: 0px ; margin: 0px&quot;&gt;&lt;br style=&quot;padding: 0px ; margin: 0px&quot;&gt;&lt;/div&gt;&lt;hr size=&quot;1&quot;&gt;&lt;p style=&quot;margin: 0px ; margin-left: 4px&quot;&gt;+ getNombres( )&amp;nbsp; &amp;nbsp;&lt;/p&gt;&lt;p style=&quot;margin: 0px ; margin-left: 4px&quot;&gt;&lt;br&gt;+ getGenero( )&lt;/p&gt;&lt;p style=&quot;margin: 0px ; margin-left: 4px&quot;&gt;&lt;br&gt;&lt;/p&gt;&lt;p style=&quot;margin: 0px ; margin-left: 4px&quot;&gt;+ getRaza( )&lt;/p&gt;&lt;p style=&quot;margin: 0px ; margin-left: 4px&quot;&gt;&lt;br&gt;&lt;/p&gt;&lt;p style=&quot;margin: 0px ; margin-left: 4px&quot;&gt;+ getEdad( )&lt;/p&gt;&lt;p style=&quot;margin: 0px ; margin-left: 4px&quot;&gt;&lt;br&gt;&lt;/p&gt;&lt;p style=&quot;margin: 0px ; margin-left: 4px&quot;&gt;+ getEstadoMatch( )&lt;/p&gt;&lt;p style=&quot;margin: 0px ; margin-left: 4px&quot;&gt;&lt;br&gt;&lt;/p&gt;&lt;p style=&quot;margin: 0px ; margin-left: 4px&quot;&gt;+ getPropietario( )&amp;nbsp;&lt;/p&gt;&lt;p style=&quot;margin: 0px ; margin-left: 4px&quot;&gt;&lt;br&gt;&lt;/p&gt;&lt;p style=&quot;margin: 0px ; margin-left: 4px&quot;&gt;+ getObservsacion( )&lt;/p&gt;&lt;p style=&quot;margin: 0px ; margin-left: 4px&quot;&gt;&amp;nbsp;&lt;/p&gt;&lt;p style=&quot;margin: 0px ; margin-left: 4px&quot;&gt;+ presentarse( )&amp;nbsp;&lt;/p&gt;&lt;p style=&quot;margin: 0px ; margin-left: 4px&quot;&gt;&lt;br&gt;&lt;/p&gt;&lt;p style=&quot;margin: 0px ; margin-left: 4px&quot;&gt;+ hacerMatch( )&amp;nbsp;&lt;/p&gt;&lt;p style=&quot;margin: 0px ; margin-left: 4px&quot;&gt;&lt;br&gt;&lt;/p&gt;" style="verticalAlign=top;align=left;overflow=fill;fontSize=12;fontFamily=Helvetica;html=1;" vertex="1" parent="1"><mxGeometry x="590" y="1310" width="220" height="530" as="geometry"/></mxCell><mxCell id="13" value="&lt;p style=&quot;margin: 0px ; margin-top: 4px ; text-align: center&quot;&gt;&lt;b&gt;Propietario&lt;/b&gt;&lt;/p&gt;&lt;hr size=&quot;1&quot;&gt;&lt;p style=&quot;margin: 0px ; margin-left: 4px&quot;&gt;+ Propietario(nombre, edad, genero)&amp;nbsp;&lt;br&gt;&lt;br&gt;&lt;/p&gt;" style="verticalAlign=top;align=left;overflow=fill;fontSize=12;fontFamily=Helvetica;html=1;" vertex="1" parent="1"><mxGeometry x="390" y="1230" width="210" height="50" as="geometry"/></mxCell><mxCell id="14" value="&lt;p style=&quot;margin: 0px ; margin-top: 4px ; text-align: center&quot;&gt;&lt;b&gt;Persona&lt;/b&gt;&lt;/p&gt;&lt;hr size=&quot;1&quot;&gt;&lt;p style=&quot;margin: 0px ; margin-left: 4px&quot;&gt;- nombre: String&amp;nbsp;&lt;/p&gt;&lt;p style=&quot;margin: 0px ; margin-left: 4px&quot;&gt;&lt;br&gt;- edad: int&amp;nbsp;&lt;/p&gt;&lt;p style=&quot;margin: 0px ; margin-left: 4px&quot;&gt;&lt;br&gt;&lt;/p&gt;&lt;p style=&quot;margin: 0px ; margin-left: 4px&quot;&gt;- genero: char&amp;nbsp;&amp;nbsp;&lt;/p&gt;&lt;hr size=&quot;1&quot;&gt;&lt;p style=&quot;margin: 0px ; margin-left: 4px&quot;&gt;+ Persona(nombre , edad , genero)&lt;/p&gt;&lt;p style=&quot;margin: 0px ; margin-left: 4px&quot;&gt;&lt;br&gt;+ method2(Type, Type): Type&lt;/p&gt;" style="verticalAlign=top;align=left;overflow=fill;fontSize=12;fontFamily=Helvetica;html=1;" vertex="1" parent="1"><mxGeometry x="120" y="1320" width="230" height="190" as="geometry"/></mxCell><mxCell id="15" value="" style="html=1;verticalAlign=bottom;labelBackgroundColor=none;endArrow=block;endFill=1;entryX=0.5;entryY=0;entryDx=0;entryDy=0;exitX=0;exitY=0.5;exitDx=0;exitDy=0;" edge="1" parent="1" source="13" target="14"><mxGeometry width="160" relative="1" as="geometry"><mxPoint x="617" y="1374.5" as="sourcePoint"/><mxPoint x="777" y="1374.5" as="targetPoint"/></mxGeometry></mxCell><mxCell id="16" value="" style="endArrow=none;startArrow=none;endFill=0;startFill=0;endSize=8;html=1;verticalAlign=bottom;labelBackgroundColor=none;strokeWidth=3;entryX=-0.016;entryY=0.205;entryDx=0;entryDy=0;entryPerimeter=0;" edge="1" parent="1" target="12"><mxGeometry width="160" relative="1" as="geometry"><mxPoint x="350" y="1419" as="sourcePoint"/><mxPoint x="560" y="1450" as="targetPoint"/></mxGeometry></mxCell></root></mxGraphModel></diagram></mxfile>